<?xml version="1.0" standalone="no"?>
<!DOCTYPE svg PUBLIC "-//W3C//DTD SVG 20010904//EN"
 "http://www.w3.org/TR/2001/REC-SVG-20010904/DTD/svg10.dtd">
<svg version="1.0" xmlns="http://www.w3.org/2000/svg"
 width="1280.000000pt" height="1280.000000pt" viewBox="0 0 1280.000000 1280.000000"
 preserveAspectRatio="xMidYMid meet">
<g transform="translate(0.000000,1280.000000) scale(0.100000,-0.100000)"
fill="#000000" stroke="none">
<path d="M6130 12789 c-47 -4 -173 -15 -280 -24 -2254 -179 -4290 -1608 -5250
-3683 -374 -810 -565 -1640 -597 -2607 -11 -305 50 -933 128 -1319 376 -1871
1558 -3470 3239 -4381 773 -419 1665 -682 2530 -745 85 -6 199 -15 253 -21
126 -12 364 -12 497 1 58 5 170 14 250 20 1948 143 3753 1213 4843 2870 593
902 948 1938 1027 3000 6 80 15 192 20 250 13 134 13 366 0 500 -5 58 -14 170
-20 250 -157 2119 -1403 4053 -3281 5093 -800 443 -1704 714 -2589 777 -85 6
-199 15 -253 21 -114 11 -395 10 -517 -2z m602 -1009 c717 -46 1379 -220 2014
-529 1602 -780 2720 -2294 2983 -4041 47 -313 55 -430 55 -810 0 -380 -8 -497
-55 -810 -130 -865 -479 -1699 -1006 -2405 -298 -399 -694 -798 -1088 -1093
-730 -546 -1582 -902 -2460 -1026 -311 -44 -405 -50 -775 -50 -425 0 -648 20
-1015 90 -901 174 -1719 563 -2445 1164 -161 133 -537 509 -670 670 -646 780
-1053 1681 -1199 2650 -47 313 -55 430 -55 810 0 369 8 486 50 780 124 862
479 1722 1003 2425 900 1207 2241 1982 3721 2151 290 33 660 42 942 24z"/>
<path d="M5699 10425 c-184 -37 -354 -168 -438 -340 -64 -130 -61 -78 -61
-1245 0 -712 -3 -1068 -10 -1081 -10 -19 -33 -19 -1078 -19 -1191 0 -1117 4
-1271 -72 -158 -77 -275 -225 -321 -404 -19 -74 -20 -113 -20 -863 0 -874 -1
-851 68 -991 49 -100 168 -221 267 -272 149 -77 64 -72 1270 -75 833 -3 1081
-6 1087 -16 4 -7 8 -490 8 -1074 0 -727 3 -1079 11 -1115 35 -170 177 -348
339 -426 144 -69 120 -67 975 -67 704 0 776 2 839 18 175 45 329 168 411 328
73 144 69 62 72 1266 l4 1082 1082 4 c1006 3 1086 4 1142 21 109 32 194 84
280 171 92 92 136 166 165 281 19 74 20 113 20 865 0 527 -4 806 -11 841 -6
29 -31 95 -56 147 -75 156 -206 268 -383 327 -52 18 -121 19 -1145 24 l-1090
5 -5 1085 -5 1085 -24 70 c-76 231 -259 398 -484 440 -108 21 -1535 20 -1638
0z"/>
</g>
</svg>
